<svg width="120" height="118" viewBox="0 0 120 118" fill="none" xmlns="http://www.w3.org/2000/svg">
<path fill-rule="evenodd" clip-rule="evenodd" d="M60.9319 51.2611C43.6067 51.5769 34.8912 57.4439 20.6606 75.4015C8.78239 95.2894 8.98146 103.562 18.5724 114.443C25.8262 118.919 29.6826 118.931 36.1725 114.443C43.1675 110.549 46.4173 110.849 51.3861 114.443C57.8244 119.187 61.5474 119.185 68.3896 114.443C74.4149 110.737 77.6836 110.684 83.3049 114.443C91.1428 118.848 95.1743 118.719 101.8 114.443C110.616 104.691 110.475 96.9947 101.8 79.5739C94.7739 68.4528 90.1384 63.4897 80.6201 56.9236C70.4143 52.7152 66.0083 51.4 60.9319 51.2611ZM75.2506 74.8054C70.3943 69.1924 67.0604 69.313 60.037 74.8054C52.6615 69.0022 49.4026 68.7989 45.42 74.8054C43.2434 79.108 44.041 82.4137 49.298 90.0049C54.5123 95.6161 56.824 97.2818 60.037 98.0517C61.7554 98.321 64.3086 96.2809 70.776 90.0049C75.2482 84.059 76.2797 80.7305 75.2506 74.8054Z" fill="#B85B2D"/>
<path d="M113.732 28.9089C108.121 27.2796 104.503 29.0874 96.7287 39.936C93.4068 51.4208 95.2207 55.2229 101.8 59.6059C112.038 59.5289 115.883 57.258 118.803 48.5788C122.123 37.859 117.916 27.2979 113.732 28.9089Z" fill="#B85B2D"/>
<path d="M78.532 0C69.4484 4.5069 66.5826 8.96772 66.0031 20.8621C66.9936 31.8556 69.8633 35.365 78.532 37.5517C88.098 35.7084 90.8289 31.2625 91.9558 18.4778C88.9567 5.22858 85.8865 1.53511 78.532 0Z" fill="#B85B2D"/>
<path d="M41.542 0C32.9973 2.47898 29.7208 6.56273 27.8199 20.8621C29.6218 32.1209 32.7737 36.1108 43.6302 37.5517C51.5655 33.9028 54.0266 29.8987 54.0709 18.4778C51.8402 5.84553 48.9803 2.03702 41.542 0Z" fill="#B85B2D"/>
<path d="M5.44695 28.9089C12.5398 26.7454 16.4747 28.1549 23.3453 39.936C26.1627 49.9601 25.9427 54.7794 17.0809 59.6059C8.66996 60.117 4.96127 58.1156 0.972356 48.5788C-1.2243 36.5651 0.315028 32.8731 5.44695 28.9089Z" fill="#B85B2D"/>
</svg>
